<svg width="100" height="97" xmlns="http://www.w3.org/2000/svg" xmlns:xlink="http://www.w3.org/1999/xlink">

    <rect_ height="97" width="100" />

	<path d="M63,7 
        c-9,-9 -20,-8 -27,0 
        c-4,3 -5,3 -8,8 
        l-10,25
        c-3,10 4,20 13,29
        c-9,-20 -20,-23 25,-31
        c8,-1 12,-1 26,2
        c-6,-7 -25,-6 -40,-4
        c-5,1 0,-2 20,-7
        c10,-2 10,-4 0,-4
        c-20,0 -20,-1 -3,-6
        c10,-3 10,-4 -2,-5
        c-5,-0.5 -4,-2 2,-2
        c6,0 7,-2 4,-5
        " fill="#fff" />

    <path d="M18,64 
    c12,18 18,19 28,22
    c-15,-2 -25,-10 -30,-15
    c-4,-3 -2,5 2,9
    c2,2 -1,2 -18,-9
    c6 -3 12,-6 18,-7
    " fill="#fff"/>

    <path d="M81,66
    c6,2 12,4 19,8
    c-3,7 -8,14 -19,23
    c6,-6 10,-12 12,-18
    c2,-6 0,-6 -5, 0
    c-3,4 -6,6 -9,8
    c4,-6 7,-8 8,-12
    c1,-4 0,-5 -5,0
    c-2,2 -4,4 -6,6
    c0,-3 2,-10 5,-15
    " fill="#fff"/>
</svg>